<mxfile host="Electron" modified="2024-10-18T16:34:22.535Z" agent="Mozilla/5.0 (Windows NT 10.0; Win64; x64) AppleWebKit/537.36 (KHTML, like Gecko) draw.io/24.2.5 Chrome/120.0.6099.109 Electron/28.1.0 Safari/537.36" etag="dSCLOQdx8llhSdQLg9Qt" version="24.2.5" type="device">
  <diagram name="Страница — 1" id="ZQxcH2tpWSHkig0uvNdj">
    <mxGraphModel dx="1050" dy="638" grid="1" gridSize="10" guides="1" tooltips="1" connect="1" arrows="1" fold="1" page="1" pageScale="1" pageWidth="827" pageHeight="1169" math="0" shadow="0">
      <root>
        <mxCell id="0" />
        <mxCell id="1" parent="0" />
        <mxCell id="ll17ptDfp-l7-mB6Z8-0-1" value="user 2" style="shape=umlActor;verticalLabelPosition=bottom;verticalAlign=top;html=1;" parent="1" vertex="1">
          <mxGeometry x="260" y="210" width="30" height="60" as="geometry" />
        </mxCell>
        <mxCell id="ll17ptDfp-l7-mB6Z8-0-2" value="server" style="shape=umlActor;verticalLabelPosition=bottom;verticalAlign=top;html=1;" parent="1" vertex="1">
          <mxGeometry x="580" y="200" width="30" height="60" as="geometry" />
        </mxCell>
        <mxCell id="ll17ptDfp-l7-mB6Z8-0-4" value="user 1" style="shape=umlActor;verticalLabelPosition=bottom;verticalAlign=top;html=1;" parent="1" vertex="1">
          <mxGeometry x="150" y="210" width="30" height="60" as="geometry" />
        </mxCell>
        <mxCell id="ll17ptDfp-l7-mB6Z8-0-6" value="Совершить ход" style="ellipse;whiteSpace=wrap;html=1;" parent="1" vertex="1">
          <mxGeometry x="150" y="50" width="140" height="70" as="geometry" />
        </mxCell>
        <mxCell id="ll17ptDfp-l7-mB6Z8-0-7" value="Определить &lt;br&gt;&lt;div&gt;порядок хода&lt;/div&gt;" style="ellipse;whiteSpace=wrap;html=1;" parent="1" vertex="1">
          <mxGeometry x="360" y="205" width="140" height="70" as="geometry" />
        </mxCell>
        <mxCell id="ll17ptDfp-l7-mB6Z8-0-8" value="Принять&amp;nbsp;&lt;div&gt;приглашение в игру&lt;/div&gt;" style="ellipse;whiteSpace=wrap;html=1;" parent="1" vertex="1">
          <mxGeometry x="50" y="370" width="140" height="70" as="geometry" />
        </mxCell>
        <mxCell id="ll17ptDfp-l7-mB6Z8-0-9" value="Отклонить&amp;nbsp;&lt;div&gt;приглашение в игру&lt;/div&gt;" style="ellipse;whiteSpace=wrap;html=1;" parent="1" vertex="1">
          <mxGeometry x="230" y="370" width="140" height="70" as="geometry" />
        </mxCell>
        <mxCell id="ll17ptDfp-l7-mB6Z8-0-10" value="Авторизация" style="ellipse;whiteSpace=wrap;html=1;" parent="1" vertex="1">
          <mxGeometry x="414" y="370" width="140" height="70" as="geometry" />
        </mxCell>
        <mxCell id="ll17ptDfp-l7-mB6Z8-0-11" value="Обновить состояние&lt;div&gt;игры&lt;/div&gt;" style="ellipse;whiteSpace=wrap;html=1;" parent="1" vertex="1">
          <mxGeometry x="490" y="50" width="140" height="70" as="geometry" />
        </mxCell>
        <mxCell id="ll17ptDfp-l7-mB6Z8-0-12" value="Отправить&amp;nbsp;&lt;div&gt;приглашение на&lt;/div&gt;&lt;div&gt;игру&lt;/div&gt;" style="ellipse;whiteSpace=wrap;html=1;" parent="1" vertex="1">
          <mxGeometry x="554" y="500" width="140" height="70" as="geometry" />
        </mxCell>
        <mxCell id="ll17ptDfp-l7-mB6Z8-0-13" value="Посмотреть список&amp;nbsp;&lt;div&gt;активных игроков&lt;/div&gt;" style="ellipse;whiteSpace=wrap;html=1;" parent="1" vertex="1">
          <mxGeometry x="660" y="330" width="140" height="70" as="geometry" />
        </mxCell>
        <mxCell id="ll17ptDfp-l7-mB6Z8-0-17" value="" style="html=1;verticalAlign=bottom;endArrow=none;dashed=1;endSize=8;curved=0;rounded=0;entryX=1;entryY=0.5;entryDx=0;entryDy=0;endFill=0;exitX=0;exitY=0.5;exitDx=0;exitDy=0;" parent="1" source="ll17ptDfp-l7-mB6Z8-0-11" target="ll17ptDfp-l7-mB6Z8-0-6" edge="1">
          <mxGeometry relative="1" as="geometry">
            <mxPoint x="370" y="160" as="sourcePoint" />
            <mxPoint x="290" y="160" as="targetPoint" />
          </mxGeometry>
        </mxCell>
        <mxCell id="ll17ptDfp-l7-mB6Z8-0-18" value="" style="html=1;verticalAlign=bottom;endArrow=none;dashed=1;endSize=8;curved=0;rounded=0;entryX=1;entryY=0.5;entryDx=0;entryDy=0;endFill=0;exitX=0.5;exitY=0;exitDx=0;exitDy=0;" parent="1" source="ll17ptDfp-l7-mB6Z8-0-7" target="ll17ptDfp-l7-mB6Z8-0-6" edge="1">
          <mxGeometry relative="1" as="geometry">
            <mxPoint x="500" y="95" as="sourcePoint" />
            <mxPoint x="300" y="95" as="targetPoint" />
          </mxGeometry>
        </mxCell>
        <mxCell id="ll17ptDfp-l7-mB6Z8-0-19" value="" style="html=1;verticalAlign=bottom;endArrow=none;dashed=1;endSize=8;curved=0;rounded=0;entryX=1;entryY=0.5;entryDx=0;entryDy=0;endFill=0;exitX=0;exitY=0.5;exitDx=0;exitDy=0;" parent="1" source="ll17ptDfp-l7-mB6Z8-0-13" target="ll17ptDfp-l7-mB6Z8-0-10" edge="1">
          <mxGeometry relative="1" as="geometry">
            <mxPoint x="510" y="105" as="sourcePoint" />
            <mxPoint x="310" y="105" as="targetPoint" />
          </mxGeometry>
        </mxCell>
        <mxCell id="ll17ptDfp-l7-mB6Z8-0-20" value="" style="html=1;verticalAlign=bottom;endArrow=none;dashed=1;endSize=8;curved=0;rounded=0;entryX=1;entryY=0.5;entryDx=0;entryDy=0;endFill=0;exitX=1;exitY=0.5;exitDx=0;exitDy=0;" parent="1" source="ll17ptDfp-l7-mB6Z8-0-12" target="ll17ptDfp-l7-mB6Z8-0-13" edge="1">
          <mxGeometry relative="1" as="geometry">
            <mxPoint x="520" y="115" as="sourcePoint" />
            <mxPoint x="320" y="115" as="targetPoint" />
          </mxGeometry>
        </mxCell>
        <mxCell id="ll17ptDfp-l7-mB6Z8-0-21" value="" style="html=1;verticalAlign=bottom;endArrow=none;curved=0;rounded=0;entryX=0;entryY=1;entryDx=0;entryDy=0;entryPerimeter=0;exitX=1;exitY=0;exitDx=0;exitDy=0;endFill=0;" parent="1" source="ll17ptDfp-l7-mB6Z8-0-10" target="ll17ptDfp-l7-mB6Z8-0-2" edge="1">
          <mxGeometry width="80" relative="1" as="geometry">
            <mxPoint x="290" y="160" as="sourcePoint" />
            <mxPoint x="370" y="160" as="targetPoint" />
          </mxGeometry>
        </mxCell>
        <mxCell id="ll17ptDfp-l7-mB6Z8-0-22" value="" style="html=1;verticalAlign=bottom;endArrow=none;curved=0;rounded=0;entryX=0.5;entryY=0;entryDx=0;entryDy=0;exitX=1;exitY=1;exitDx=0;exitDy=0;endFill=0;exitPerimeter=0;" parent="1" source="ll17ptDfp-l7-mB6Z8-0-2" target="ll17ptDfp-l7-mB6Z8-0-12" edge="1">
          <mxGeometry width="80" relative="1" as="geometry">
            <mxPoint x="450" y="460" as="sourcePoint" />
            <mxPoint x="590" y="270" as="targetPoint" />
          </mxGeometry>
        </mxCell>
        <mxCell id="ll17ptDfp-l7-mB6Z8-0-23" value="" style="html=1;verticalAlign=bottom;endArrow=none;curved=0;rounded=0;entryX=0.5;entryY=0;entryDx=0;entryDy=0;exitX=1;exitY=0.3333333333333333;exitDx=0;exitDy=0;endFill=0;exitPerimeter=0;" parent="1" source="ll17ptDfp-l7-mB6Z8-0-2" target="ll17ptDfp-l7-mB6Z8-0-13" edge="1">
          <mxGeometry width="80" relative="1" as="geometry">
            <mxPoint x="620" y="230" as="sourcePoint" />
            <mxPoint x="697" y="315" as="targetPoint" />
          </mxGeometry>
        </mxCell>
        <mxCell id="ll17ptDfp-l7-mB6Z8-0-24" value="" style="html=1;verticalAlign=bottom;endArrow=none;curved=0;rounded=0;entryX=1;entryY=0.5;entryDx=0;entryDy=0;exitX=0;exitY=0.3333333333333333;exitDx=0;exitDy=0;endFill=0;exitPerimeter=0;" parent="1" source="ll17ptDfp-l7-mB6Z8-0-2" target="ll17ptDfp-l7-mB6Z8-0-7" edge="1">
          <mxGeometry width="80" relative="1" as="geometry">
            <mxPoint x="630" y="240" as="sourcePoint" />
            <mxPoint x="707" y="325" as="targetPoint" />
          </mxGeometry>
        </mxCell>
        <mxCell id="ll17ptDfp-l7-mB6Z8-0-25" value="" style="html=1;verticalAlign=bottom;endArrow=none;curved=0;rounded=0;entryX=0.5;entryY=1;entryDx=0;entryDy=0;exitX=0.5;exitY=0;exitDx=0;exitDy=0;endFill=0;exitPerimeter=0;" parent="1" source="ll17ptDfp-l7-mB6Z8-0-2" target="ll17ptDfp-l7-mB6Z8-0-11" edge="1">
          <mxGeometry width="80" relative="1" as="geometry">
            <mxPoint x="640" y="250" as="sourcePoint" />
            <mxPoint x="717" y="335" as="targetPoint" />
          </mxGeometry>
        </mxCell>
        <mxCell id="ll17ptDfp-l7-mB6Z8-0-26" value="" style="html=1;verticalAlign=bottom;endArrow=none;curved=0;rounded=0;entryX=1;entryY=0.5;entryDx=0;entryDy=0;exitX=0;exitY=1;exitDx=0;exitDy=0;endFill=0;exitPerimeter=0;" parent="1" source="ll17ptDfp-l7-mB6Z8-0-2" target="ll17ptDfp-l7-mB6Z8-0-9" edge="1">
          <mxGeometry width="80" relative="1" as="geometry">
            <mxPoint x="650" y="260" as="sourcePoint" />
            <mxPoint x="727" y="345" as="targetPoint" />
          </mxGeometry>
        </mxCell>
        <mxCell id="ll17ptDfp-l7-mB6Z8-0-27" value="" style="html=1;verticalAlign=bottom;endArrow=none;curved=0;rounded=0;entryX=1;entryY=0;entryDx=0;entryDy=0;exitX=0;exitY=1;exitDx=0;exitDy=0;endFill=0;exitPerimeter=0;" parent="1" source="ll17ptDfp-l7-mB6Z8-0-2" target="ll17ptDfp-l7-mB6Z8-0-8" edge="1">
          <mxGeometry width="80" relative="1" as="geometry">
            <mxPoint x="590" y="270" as="sourcePoint" />
            <mxPoint x="370" y="415" as="targetPoint" />
          </mxGeometry>
        </mxCell>
        <mxCell id="ll17ptDfp-l7-mB6Z8-0-28" value="" style="html=1;verticalAlign=bottom;endArrow=none;curved=0;rounded=0;entryX=1;entryY=1;entryDx=0;entryDy=0;exitX=0.5;exitY=0;exitDx=0;exitDy=0;endFill=0;exitPerimeter=0;" parent="1" source="ll17ptDfp-l7-mB6Z8-0-1" target="ll17ptDfp-l7-mB6Z8-0-6" edge="1">
          <mxGeometry width="80" relative="1" as="geometry">
            <mxPoint x="605" y="210" as="sourcePoint" />
            <mxPoint x="570" y="130" as="targetPoint" />
          </mxGeometry>
        </mxCell>
        <mxCell id="ll17ptDfp-l7-mB6Z8-0-29" value="" style="html=1;verticalAlign=bottom;endArrow=none;curved=0;rounded=0;entryX=0;entryY=1;entryDx=0;entryDy=0;exitX=0.5;exitY=0;exitDx=0;exitDy=0;endFill=0;exitPerimeter=0;" parent="1" source="ll17ptDfp-l7-mB6Z8-0-4" target="ll17ptDfp-l7-mB6Z8-0-6" edge="1">
          <mxGeometry width="80" relative="1" as="geometry">
            <mxPoint x="285" y="220" as="sourcePoint" />
            <mxPoint x="280" y="120" as="targetPoint" />
          </mxGeometry>
        </mxCell>
        <mxCell id="ll17ptDfp-l7-mB6Z8-0-30" value="" style="html=1;verticalAlign=bottom;endArrow=none;curved=0;rounded=0;entryX=0;entryY=1;entryDx=0;entryDy=0;exitX=0.5;exitY=0;exitDx=0;exitDy=0;endFill=0;entryPerimeter=0;" parent="1" source="ll17ptDfp-l7-mB6Z8-0-8" target="ll17ptDfp-l7-mB6Z8-0-4" edge="1">
          <mxGeometry width="80" relative="1" as="geometry">
            <mxPoint x="295" y="230" as="sourcePoint" />
            <mxPoint x="290" y="130" as="targetPoint" />
          </mxGeometry>
        </mxCell>
        <mxCell id="ll17ptDfp-l7-mB6Z8-0-31" value="" style="html=1;verticalAlign=bottom;endArrow=none;curved=0;rounded=0;entryX=1;entryY=1;entryDx=0;entryDy=0;exitX=0.5;exitY=0;exitDx=0;exitDy=0;endFill=0;entryPerimeter=0;" parent="1" source="ll17ptDfp-l7-mB6Z8-0-9" target="ll17ptDfp-l7-mB6Z8-0-4" edge="1">
          <mxGeometry width="80" relative="1" as="geometry">
            <mxPoint x="130" y="380" as="sourcePoint" />
            <mxPoint x="160" y="280" as="targetPoint" />
          </mxGeometry>
        </mxCell>
        <mxCell id="ll17ptDfp-l7-mB6Z8-0-32" value="" style="html=1;verticalAlign=bottom;endArrow=none;curved=0;rounded=0;entryX=0;entryY=0.3333333333333333;entryDx=0;entryDy=0;exitX=0.5;exitY=0;exitDx=0;exitDy=0;endFill=0;entryPerimeter=0;" parent="1" source="ll17ptDfp-l7-mB6Z8-0-8" target="ll17ptDfp-l7-mB6Z8-0-1" edge="1">
          <mxGeometry width="80" relative="1" as="geometry">
            <mxPoint x="140" y="390" as="sourcePoint" />
            <mxPoint x="170" y="290" as="targetPoint" />
          </mxGeometry>
        </mxCell>
        <mxCell id="ll17ptDfp-l7-mB6Z8-0-33" value="" style="html=1;verticalAlign=bottom;endArrow=none;curved=0;rounded=0;entryX=1;entryY=0.3333333333333333;entryDx=0;entryDy=0;exitX=0;exitY=0;exitDx=0;exitDy=0;endFill=0;entryPerimeter=0;" parent="1" source="ll17ptDfp-l7-mB6Z8-0-10" target="ll17ptDfp-l7-mB6Z8-0-4" edge="1">
          <mxGeometry width="80" relative="1" as="geometry">
            <mxPoint x="150" y="400" as="sourcePoint" />
            <mxPoint x="180" y="300" as="targetPoint" />
          </mxGeometry>
        </mxCell>
        <mxCell id="ll17ptDfp-l7-mB6Z8-0-34" value="" style="html=1;verticalAlign=bottom;endArrow=none;curved=0;rounded=0;exitX=0.5;exitY=0;exitDx=0;exitDy=0;endFill=0;entryX=0;entryY=1;entryDx=0;entryDy=0;entryPerimeter=0;" parent="1" source="ll17ptDfp-l7-mB6Z8-0-9" target="ll17ptDfp-l7-mB6Z8-0-1" edge="1">
          <mxGeometry width="80" relative="1" as="geometry">
            <mxPoint x="160" y="410" as="sourcePoint" />
            <mxPoint x="260" y="270" as="targetPoint" />
          </mxGeometry>
        </mxCell>
        <mxCell id="ll17ptDfp-l7-mB6Z8-0-35" value="" style="html=1;verticalAlign=bottom;endArrow=none;curved=0;rounded=0;entryX=1;entryY=1;entryDx=0;entryDy=0;exitX=0.5;exitY=0;exitDx=0;exitDy=0;endFill=0;entryPerimeter=0;" parent="1" source="ll17ptDfp-l7-mB6Z8-0-10" target="ll17ptDfp-l7-mB6Z8-0-1" edge="1">
          <mxGeometry width="80" relative="1" as="geometry">
            <mxPoint x="170" y="420" as="sourcePoint" />
            <mxPoint x="200" y="320" as="targetPoint" />
          </mxGeometry>
        </mxCell>
        <mxCell id="ll17ptDfp-l7-mB6Z8-0-36" value="" style="html=1;verticalAlign=bottom;endArrow=none;dashed=1;endSize=8;curved=0;rounded=0;entryX=0;entryY=0.5;entryDx=0;entryDy=0;endFill=0;exitX=0.5;exitY=1;exitDx=0;exitDy=0;" parent="1" source="ll17ptDfp-l7-mB6Z8-0-8" target="ll17ptDfp-l7-mB6Z8-0-12" edge="1">
          <mxGeometry relative="1" as="geometry">
            <mxPoint x="750" y="545" as="sourcePoint" />
            <mxPoint x="837" y="375" as="targetPoint" />
          </mxGeometry>
        </mxCell>
        <mxCell id="ll17ptDfp-l7-mB6Z8-0-37" value="" style="html=1;verticalAlign=bottom;endArrow=none;dashed=1;endSize=8;curved=0;rounded=0;entryX=0;entryY=0.5;entryDx=0;entryDy=0;endFill=0;exitX=0.5;exitY=1;exitDx=0;exitDy=0;" parent="1" source="ll17ptDfp-l7-mB6Z8-0-9" target="ll17ptDfp-l7-mB6Z8-0-12" edge="1">
          <mxGeometry relative="1" as="geometry">
            <mxPoint x="760" y="555" as="sourcePoint" />
            <mxPoint x="847" y="385" as="targetPoint" />
          </mxGeometry>
        </mxCell>
      </root>
    </mxGraphModel>
  </diagram>
</mxfile>
